# xmcd
#
# Track frame offsets:
#	150
#	15167
#	31433
#	50072
#	64024
#	82386
#	103847
#	127617
#	145002
#	167287
#
# Disc length: 2475 seconds
# Revision: 0
# Processed by: cddbd v1.5.2PL0 Copyright (c) Steve Scherf et al.
# Submitted via: dBpowerAMP V12.0
#
DISCID=7909a90a
DTITLE=Mia Dyson - The Moment
DYEAR=2012
DGENRE=Blues Female
TTITLE0=When the Moment Comes
TTITLE1=Pistol
TTITLE2=Tell Me
TTITLE3=Fill Yourself
TTITLE4=The Outskirts of Town
TTITLE5=Dancing On the Edge
TTITLE6=Jesse
TTITLE7=To Fight is to Lose
TTITLE8=Cigarettes
TTITLE9=Two Roads
EXTD=
EXTT0=
EXTT1=
EXTT2=
EXTT3=
EXTT4=
EXTT5=
EXTT6=
EXTT7=
EXTT8=
EXTT9=
PLAYORDER=
